# 3D Character Model - Generated for Unity
# Boy in white thobe

mtllib character.mtl
usemtl character_material

v 0.000000 1.150000 0.000000
v 0.000000 1.150000 0.000000
v 0.000000 1.150000 0.000000
v 0.000000 1.150000 0.000000
v 0.000000 1.150000 0.000000
v 0.000000 1.150000 0.000000
v 0.000000 1.150000 0.000000
v 0.000000 1.150000 0.000000
v 0.000000 1.150000 0.000000
v 0.000000 1.150000 0.000000
v 0.000000 1.150000 0.000000
v 0.000000 1.150000 0.000000
v 0.000000 1.150000 0.000000
v 0.000000 1.150000 0.000000
v 0.000000 1.150000 0.000000
v 0.000000 1.150000 0.000000
v 0.000000 1.150000 0.000000
v 0.000000 1.150000 0.000000
v 0.000000 1.150000 0.000000
v 0.060777 1.144683 0.000000
v 0.057112 1.144683 0.020787
v 0.046558 1.144683 0.039067
v 0.030388 1.144683 0.052634
v 0.010554 1.144683 0.059853
v -0.010554 1.144683 0.059853
v -0.030388 1.144683 0.052634
v -0.046558 1.144683 0.039067
v -0.057111 1.144683 0.020787
v -0.060777 1.144683 0.000000
v -0.057112 1.144683 -0.020787
v -0.046558 1.144683 -0.039066
v -0.030389 1.144683 -0.052634
v -0.010554 1.144683 -0.059853
v 0.010554 1.144683 -0.059854
v 0.030388 1.144683 -0.052634
v 0.046558 1.144683 -0.039067
v 0.057111 1.144683 -0.020787
v 0.060777 1.144683 -0.000000
v 0.119707 1.128892 0.000000
v 0.112488 1.128892 0.040942
v 0.091701 1.128892 0.076946
v 0.059854 1.128892 0.103669
v 0.020787 1.128892 0.117888
v -0.020787 1.128892 0.117888
v -0.059853 1.128892 0.103669
v -0.091701 1.128892 0.076946
v -0.112488 1.128892 0.040942
v -0.119707 1.128892 0.000000
v -0.112488 1.128892 -0.040942
v -0.091701 1.128892 -0.076946
v -0.059854 1.128892 -0.103669
v -0.020787 1.128892 -0.117888
v 0.020786 1.128892 -0.117888
v 0.059853 1.128892 -0.103670
v 0.091700 1.128892 -0.076947
v 0.112488 1.128892 -0.040943
v 0.119707 1.128892 -0.000001
v 0.175000 1.103109 0.000000
v 0.164446 1.103109 0.059853
v 0.134058 1.103109 0.112488
v 0.087500 1.103109 0.151554
v 0.030389 1.103109 0.172341
v -0.030388 1.103109 0.172341
v -0.087500 1.103109 0.151554
v -0.134057 1.103109 0.112488
v -0.164446 1.103109 0.059854
v -0.175000 1.103109 0.000000
v -0.164446 1.103109 -0.059853
v -0.134058 1.103109 -0.112487
v -0.087500 1.103109 -0.151554
v -0.030389 1.103109 -0.172341
v 0.030388 1.103109 -0.172341
v 0.087499 1.103109 -0.151555
v 0.134057 1.103109 -0.112488
v 0.164446 1.103109 -0.059854
v 0.175000 1.103109 -0.000001
v 0.224976 1.068116 0.000000
v 0.211408 1.068116 0.076946
v 0.172341 1.068116 0.144611
v 0.112488 1.068116 0.194834
v 0.039067 1.068116 0.221558
v -0.039066 1.068116 0.221558
v -0.112487 1.068116 0.194835
v -0.172341 1.068116 0.144612
v -0.211408 1.068116 0.076947
v -0.224976 1.068116 0.000001
v -0.211408 1.068116 -0.076946
v -0.172342 1.068116 -0.144611
v -0.112488 1.068116 -0.194834
v -0.039067 1.068116 -0.221557
v 0.039066 1.068116 -0.221558
v 0.112487 1.068116 -0.194835
v 0.172341 1.068116 -0.144612
v 0.211407 1.068116 -0.076947
v 0.224976 1.068116 -0.000001
v 0.268115 1.024976 0.000000
v 0.251946 1.024976 0.091701
v 0.205388 1.024976 0.172341
v 0.134058 1.024976 0.232195
v 0.046558 1.024976 0.264042
v -0.046557 1.024976 0.264042
v -0.134057 1.024976 0.232195
v -0.205388 1.024976 0.172342
v -0.251946 1.024976 0.091701
v -0.268115 1.024976 0.000001
v -0.251946 1.024976 -0.091700
v -0.205389 1.024976 -0.172341
v -0.134059 1.024976 -0.232194
v -0.046559 1.024976 -0.264042
v 0.046557 1.024976 -0.264042
v 0.134057 1.024976 -0.232195
v 0.205387 1.024976 -0.172342
v 0.251946 1.024976 -0.091702
v 0.268115 1.024976 -0.000001
v 0.303109 0.975000 0.000000
v 0.284829 0.975000 0.103669
v 0.232195 0.975000 0.194834
v 0.151555 0.975000 0.262500
v 0.052635 0.975000 0.298504
v -0.052634 0.975000 0.298504
v -0.151554 0.975000 0.262500
v -0.232194 0.975000 0.194835
v -0.284829 0.975000 0.103670
v -0.303109 0.975000 0.000001
v -0.284829 0.975000 -0.103668
v -0.232195 0.975000 -0.194834
v -0.151555 0.975000 -0.262499
v -0.052635 0.975000 -0.298504
v 0.052633 0.975000 -0.298504
v 0.151553 0.975000 -0.262501
v 0.232194 0.975000 -0.194836
v 0.284829 0.975000 -0.103671
v 0.303109 0.975000 -0.000002
v 0.328892 0.919707 0.000000
v 0.309058 0.919707 0.112488
v 0.251946 0.919707 0.211408
v 0.164446 0.919707 0.284829
v 0.057112 0.919707 0.323896
v -0.057111 0.919707 0.323896
v -0.164446 0.919707 0.284829
v -0.251946 0.919707 0.211408
v -0.309057 0.919707 0.112489
v -0.328892 0.919707 0.000001
v -0.309058 0.919707 -0.112487
v -0.251947 0.919707 -0.211407
v -0.164447 0.919707 -0.284828
v -0.057113 0.919707 -0.323895
v 0.057110 0.919707 -0.323896
v 0.164445 0.919707 -0.284830
v 0.251945 0.919707 -0.211409
v 0.309057 0.919707 -0.112489
v 0.328892 0.919707 -0.000002
v 0.344683 0.860777 0.000000
v 0.323896 0.860777 0.117888
v 0.264042 0.860777 0.221558
v 0.172342 0.860777 0.298504
v 0.059854 0.860777 0.339446
v -0.059853 0.860777 0.339446
v -0.172341 0.860777 0.298504
v -0.264042 0.860777 0.221558
v -0.323895 0.860777 0.117889
v -0.344683 0.860777 0.000001
v -0.323896 0.860777 -0.117887
v -0.264043 0.860777 -0.221557
v -0.172342 0.860777 -0.298503
v -0.059855 0.860777 -0.339446
v 0.059852 0.860777 -0.339446
v 0.172340 0.860777 -0.298505
v 0.264041 0.860777 -0.221559
v 0.323895 0.860777 -0.117890
v 0.344683 0.860777 -0.000002
v 0.350000 0.800000 0.000000
v 0.328892 0.800000 0.119707
v 0.268116 0.800000 0.224976
v 0.175000 0.800000 0.303109
v 0.060777 0.800000 0.344683
v -0.060776 0.800000 0.344683
v -0.174999 0.800000 0.303109
v -0.268115 0.800000 0.224976
v -0.328892 0.800000 0.119708
v -0.350000 0.800000 0.000001
v -0.328893 0.800000 -0.119706
v -0.268116 0.800000 -0.224975
v -0.175001 0.800000 -0.303108
v -0.060778 0.800000 -0.344682
v 0.060775 0.800000 -0.344683
v 0.174999 0.800000 -0.303110
v 0.268114 0.800000 -0.224977
v 0.328892 0.800000 -0.119709
v 0.350000 0.800000 -0.000002
v 0.344683 0.739224 0.000000
v 0.323896 0.739224 0.117888
v 0.264042 0.739224 0.221558
v 0.172342 0.739224 0.298504
v 0.059854 0.739224 0.339446
v -0.059853 0.739224 0.339446
v -0.172341 0.739224 0.298504
v -0.264042 0.739224 0.221558
v -0.323896 0.739224 0.117889
v -0.344683 0.739224 0.000001
v -0.323896 0.739224 -0.117888
v -0.264043 0.739224 -0.221557
v -0.172342 0.739224 -0.298503
v -0.059855 0.739224 -0.339446
v 0.059852 0.739224 -0.339447
v 0.172340 0.739224 -0.298505
v 0.264041 0.739224 -0.221559
v 0.323895 0.739224 -0.117890
v 0.344683 0.739224 -0.000002
v 0.328893 0.680293 0.000000
v 0.309058 0.680293 0.112488
v 0.251946 0.680293 0.211408
v 0.164447 0.680293 0.284829
v 0.057112 0.680293 0.323896
v -0.057111 0.680293 0.323896
v -0.164446 0.680293 0.284830
v -0.251946 0.680293 0.211409
v -0.309058 0.680293 0.112489
v -0.328893 0.680293 0.000001
v -0.309058 0.680293 -0.112487
v -0.251947 0.680293 -0.211407
v -0.164447 0.680293 -0.284829
v -0.057113 0.680293 -0.323896
v 0.057110 0.680293 -0.323896
v 0.164445 0.680293 -0.284830
v 0.251945 0.680293 -0.211409
v 0.309057 0.680293 -0.112489
v 0.328893 0.680293 -0.000002
v 0.303109 0.625001 0.000000
v 0.284830 0.625001 0.103669
v 0.232195 0.625001 0.194835
v 0.151555 0.625001 0.262500
v 0.052635 0.625001 0.298504
v -0.052634 0.625001 0.298504
v -0.151554 0.625001 0.262501
v -0.232195 0.625001 0.194835
v -0.284829 0.625001 0.103670
v -0.303109 0.625001 0.000001
v -0.284830 0.625001 -0.103669
v -0.232196 0.625001 -0.194834
v -0.151556 0.625001 -0.262500
v -0.052636 0.625001 -0.298504
v 0.052633 0.625001 -0.298505
v 0.151553 0.625001 -0.262501
v 0.232194 0.625001 -0.194836
v 0.284829 0.625001 -0.103671
v 0.303109 0.625001 -0.000002
v 0.268116 0.575025 0.000000
v 0.251947 0.575025 0.091701
v 0.205389 0.575025 0.172342
v 0.134058 0.575025 0.232195
v 0.046558 0.575025 0.264043
v -0.046557 0.575025 0.264043
v -0.134058 0.575025 0.232195
v -0.205388 0.575025 0.172342
v -0.251946 0.575025 0.091702
v -0.268116 0.575025 0.000001
v -0.251947 0.575025 -0.091700
v -0.205389 0.575025 -0.172341
v -0.134059 0.575025 -0.232195
v -0.046559 0.575025 -0.264043
v 0.046557 0.575025 -0.264043
v 0.134057 0.575025 -0.232196
v 0.205388 0.575025 -0.172343
v 0.251946 0.575025 -0.091702
v 0.268116 0.575025 -0.000001
v 0.224976 0.531885 0.000000
v 0.211409 0.531885 0.076946
v 0.172342 0.531885 0.144612
v 0.112488 0.531885 0.194835
v 0.039067 0.531885 0.221558
v -0.039066 0.531885 0.221558
v -0.112488 0.531885 0.194835
v -0.172341 0.531885 0.144612
v -0.211408 0.531885 0.076947
v -0.224976 0.531885 0.000001
v -0.211409 0.531885 -0.076946
v -0.172342 0.531885 -0.144611
v -0.112489 0.531885 -0.194835
v -0.039068 0.531885 -0.221558
v 0.039066 0.531885 -0.221558
v 0.112487 0.531885 -0.194836
v 0.172341 0.531885 -0.144613
v 0.211408 0.531885 -0.076947
v 0.224976 0.531885 -0.000001
v 0.175001 0.496891 0.000000
v 0.164447 0.496891 0.059854
v 0.134058 0.496891 0.112488
v 0.087500 0.496891 0.151555
v 0.030389 0.496891 0.172342
v -0.030388 0.496891 0.172342
v -0.087500 0.496891 0.151555
v -0.134058 0.496891 0.112489
v -0.164447 0.496891 0.059854
v -0.175001 0.496891 0.000000
v -0.164447 0.496891 -0.059853
v -0.134059 0.496891 -0.112488
v -0.087501 0.496891 -0.151555
v -0.030389 0.496891 -0.172342
v 0.030388 0.496891 -0.172342
v 0.087500 0.496891 -0.151555
v 0.134058 0.496891 -0.112489
v 0.164447 0.496891 -0.059855
v 0.175001 0.496891 -0.000001
v 0.119708 0.471108 0.000000
v 0.112489 0.471108 0.040942
v 0.091702 0.471108 0.076947
v 0.059854 0.471108 0.103670
v 0.020787 0.471108 0.117889
v -0.020787 0.471108 0.117889
v -0.059854 0.471108 0.103670
v -0.091701 0.471108 0.076947
v -0.112488 0.471108 0.040943
v -0.119708 0.471108 0.000000
v -0.112489 0.471108 -0.040942
v -0.091702 0.471108 -0.076946
v -0.059854 0.471108 -0.103670
v -0.020787 0.471108 -0.117889
v 0.020787 0.471108 -0.117889
v 0.059853 0.471108 -0.103670
v 0.091701 0.471108 -0.076947
v 0.112488 0.471108 -0.040943
v 0.119708 0.471108 -0.000001
v 0.060778 0.455317 0.000000
v 0.057112 0.455317 0.020787
v 0.046558 0.455317 0.039067
v 0.030389 0.455317 0.052635
v 0.010554 0.455317 0.059854
v -0.010554 0.455317 0.059854
v -0.030389 0.455317 0.052635
v -0.046558 0.455317 0.039067
v -0.057112 0.455317 0.020787
v -0.060778 0.455317 0.000000
v -0.057112 0.455317 -0.020787
v -0.046559 0.455317 -0.039067
v -0.030389 0.455317 -0.052635
v -0.010554 0.455317 -0.059854
v 0.010554 0.455317 -0.059854
v 0.030389 0.455317 -0.052635
v 0.046558 0.455317 -0.039067
v 0.057112 0.455317 -0.020787
v 0.060778 0.455317 -0.000000
v 0.000001 0.450000 0.000000
v 0.000001 0.450000 0.000000
v 0.000001 0.450000 0.000001
v 0.000000 0.450000 0.000001
v 0.000000 0.450000 0.000001
v -0.000000 0.450000 0.000001
v -0.000000 0.450000 0.000001
v -0.000001 0.450000 0.000001
v -0.000001 0.450000 0.000000
v -0.000001 0.450000 0.000000
v -0.000001 0.450000 -0.000000
v -0.000001 0.450000 -0.000001
v -0.000000 0.450000 -0.000001
v -0.000000 0.450000 -0.000001
v 0.000000 0.450000 -0.000001
v 0.000000 0.450000 -0.000001
v 0.000001 0.450000 -0.000001
v 0.000001 0.450000 -0.000000
v 0.000001 0.450000 -0.000000
v 0.280000 0.100000 0.000000
v 0.242487 0.100000 0.140000
v 0.140000 0.100000 0.242487
v 0.000000 0.100000 0.280000
v -0.140000 0.100000 0.242487
v -0.242487 0.100000 0.140001
v -0.280000 0.100000 0.000001
v -0.242488 0.100000 -0.139999
v -0.140001 0.100000 -0.242487
v -0.000001 0.100000 -0.280000
v 0.139999 0.100000 -0.242488
v 0.242486 0.100000 -0.140001
v 0.280000 0.650000 0.000000
v 0.242487 0.650000 0.140000
v 0.140000 0.650000 0.242487
v 0.000000 0.650000 0.280000
v -0.140000 0.650000 0.242487
v -0.242487 0.650000 0.140001
v -0.280000 0.650000 0.000001
v -0.242488 0.650000 -0.139999
v -0.140001 0.650000 -0.242487
v -0.000001 0.650000 -0.280000
v 0.139999 0.650000 -0.242488
v 0.242486 0.650000 -0.140001
v -0.370000 0.450000 0.000000
v -0.385279 0.450000 0.047023
v -0.425279 0.450000 0.076084
v -0.474721 0.450000 0.076085
v -0.514721 0.450000 0.047023
v -0.530000 0.450000 0.000000
v -0.514722 0.450000 -0.047023
v -0.474722 0.450000 -0.076084
v -0.425279 0.450000 -0.076085
v -0.385279 0.450000 -0.047023
v -0.370000 0.800000 0.000000
v -0.385279 0.800000 0.047023
v -0.425279 0.800000 0.076084
v -0.474721 0.800000 0.076085
v -0.514721 0.800000 0.047023
v -0.530000 0.800000 0.000000
v -0.514722 0.800000 -0.047023
v -0.474722 0.800000 -0.076084
v -0.425279 0.800000 -0.076085
v -0.385279 0.800000 -0.047023
v 0.530000 0.450000 0.000000
v 0.514721 0.450000 0.047023
v 0.474721 0.450000 0.076084
v 0.425279 0.450000 0.076085
v 0.385279 0.450000 0.047023
v 0.370000 0.450000 0.000000
v 0.385278 0.450000 -0.047023
v 0.425278 0.450000 -0.076084
v 0.474721 0.450000 -0.076085
v 0.514721 0.450000 -0.047023
v 0.530000 0.800000 0.000000
v 0.514721 0.800000 0.047023
v 0.474721 0.800000 0.076084
v 0.425279 0.800000 0.076085
v 0.385279 0.800000 0.047023
v 0.370000 0.800000 0.000000
v 0.385278 0.800000 -0.047023
v 0.425278 0.800000 -0.076084
v 0.474721 0.800000 -0.076085
v 0.514721 0.800000 -0.047023
v -0.070000 -0.300000 0.000000
v -0.085279 -0.300000 0.047023
v -0.125279 -0.300000 0.076084
v -0.174721 -0.300000 0.076085
v -0.214721 -0.300000 0.047023
v -0.230000 -0.300000 0.000000
v -0.214722 -0.300000 -0.047023
v -0.174722 -0.300000 -0.076084
v -0.125279 -0.300000 -0.076085
v -0.085279 -0.300000 -0.047023
v -0.070000 0.150000 0.000000
v -0.085279 0.150000 0.047023
v -0.125279 0.150000 0.076084
v -0.174721 0.150000 0.076085
v -0.214721 0.150000 0.047023
v -0.230000 0.150000 0.000000
v -0.214722 0.150000 -0.047023
v -0.174722 0.150000 -0.076084
v -0.125279 0.150000 -0.076085
v -0.085279 0.150000 -0.047023
v 0.230000 -0.300000 0.000000
v 0.214721 -0.300000 0.047023
v 0.174721 -0.300000 0.076084
v 0.125279 -0.300000 0.076085
v 0.085279 -0.300000 0.047023
v 0.070000 -0.300000 0.000000
v 0.085278 -0.300000 -0.047023
v 0.125278 -0.300000 -0.076084
v 0.174721 -0.300000 -0.076085
v 0.214721 -0.300000 -0.047023
v 0.230000 0.150000 0.000000
v 0.214721 0.150000 0.047023
v 0.174721 0.150000 0.076084
v 0.125279 0.150000 0.076085
v 0.085279 0.150000 0.047023
v 0.070000 0.150000 0.000000
v 0.085278 0.150000 -0.047023
v 0.125278 0.150000 -0.076084
v 0.174721 0.150000 -0.076085
v 0.214721 0.150000 -0.047023

# Faces
f 1 2 20
f 2 21 20
f 2 3 21
f 3 22 21
f 3 4 22
f 4 23 22
f 4 5 23
f 5 24 23
f 5 6 24
f 6 25 24
f 6 7 25
f 7 26 25
f 7 8 26
f 8 27 26
f 8 9 27
f 9 28 27
f 9 10 28
f 10 29 28
f 10 11 29
f 11 30 29
f 11 12 30
f 12 31 30
f 12 13 31
f 13 32 31
f 13 14 32
f 14 33 32
f 14 15 33
f 15 34 33
f 15 16 34
f 16 35 34
f 16 17 35
f 17 36 35
f 17 18 36
f 18 37 36
f 18 19 37
f 19 38 37
f 20 21 39
f 21 40 39
f 21 22 40
f 22 41 40
f 22 23 41
f 23 42 41
f 23 24 42
f 24 43 42
f 24 25 43
f 25 44 43
f 25 26 44
f 26 45 44
f 26 27 45
f 27 46 45
f 27 28 46
f 28 47 46
f 28 29 47
f 29 48 47
f 29 30 48
f 30 49 48
f 30 31 49
f 31 50 49
f 31 32 50
f 32 51 50
f 32 33 51
f 33 52 51
f 33 34 52
f 34 53 52
f 34 35 53
f 35 54 53
f 35 36 54
f 36 55 54
f 36 37 55
f 37 56 55
f 37 38 56
f 38 57 56
f 39 40 58
f 40 59 58
f 40 41 59
f 41 60 59
f 41 42 60
f 42 61 60
f 42 43 61
f 43 62 61
f 43 44 62
f 44 63 62
f 44 45 63
f 45 64 63
f 45 46 64
f 46 65 64
f 46 47 65
f 47 66 65
f 47 48 66
f 48 67 66
f 48 49 67
f 49 68 67
f 49 50 68
f 50 69 68
f 50 51 69
f 51 70 69
f 51 52 70
f 52 71 70
f 52 53 71
f 53 72 71
f 53 54 72
f 54 73 72
f 54 55 73
f 55 74 73
f 55 56 74
f 56 75 74
f 56 57 75
f 57 76 75
f 58 59 77
f 59 78 77
f 59 60 78
f 60 79 78
f 60 61 79
f 61 80 79
f 61 62 80
f 62 81 80
f 62 63 81
f 63 82 81
f 63 64 82
f 64 83 82
f 64 65 83
f 65 84 83
f 65 66 84
f 66 85 84
f 66 67 85
f 67 86 85
f 67 68 86
f 68 87 86
f 68 69 87
f 69 88 87
f 69 70 88
f 70 89 88
f 70 71 89
f 71 90 89
f 71 72 90
f 72 91 90
f 72 73 91
f 73 92 91
f 73 74 92
f 74 93 92
f 74 75 93
f 75 94 93
f 75 76 94
f 76 95 94
f 77 78 96
f 78 97 96
f 78 79 97
f 79 98 97
f 79 80 98
f 80 99 98
f 80 81 99
f 81 100 99
f 81 82 100
f 82 101 100
f 82 83 101
f 83 102 101
f 83 84 102
f 84 103 102
f 84 85 103
f 85 104 103
f 85 86 104
f 86 105 104
f 86 87 105
f 87 106 105
f 87 88 106
f 88 107 106
f 88 89 107
f 89 108 107
f 89 90 108
f 90 109 108
f 90 91 109
f 91 110 109
f 91 92 110
f 92 111 110
f 92 93 111
f 93 112 111
f 93 94 112
f 94 113 112
f 94 95 113
f 95 114 113
f 96 97 115
f 97 116 115
f 97 98 116
f 98 117 116
f 98 99 117
f 99 118 117
f 99 100 118
f 100 119 118
f 100 101 119
f 101 120 119
f 101 102 120
f 102 121 120
f 102 103 121
f 103 122 121
f 103 104 122
f 104 123 122
f 104 105 123
f 105 124 123
f 105 106 124
f 106 125 124
f 106 107 125
f 107 126 125
f 107 108 126
f 108 127 126
f 108 109 127
f 109 128 127
f 109 110 128
f 110 129 128
f 110 111 129
f 111 130 129
f 111 112 130
f 112 131 130
f 112 113 131
f 113 132 131
f 113 114 132
f 114 133 132
f 115 116 134
f 116 135 134
f 116 117 135
f 117 136 135
f 117 118 136
f 118 137 136
f 118 119 137
f 119 138 137
f 119 120 138
f 120 139 138
f 120 121 139
f 121 140 139
f 121 122 140
f 122 141 140
f 122 123 141
f 123 142 141
f 123 124 142
f 124 143 142
f 124 125 143
f 125 144 143
f 125 126 144
f 126 145 144
f 126 127 145
f 127 146 145
f 127 128 146
f 128 147 146
f 128 129 147
f 129 148 147
f 129 130 148
f 130 149 148
f 130 131 149
f 131 150 149
f 131 132 150
f 132 151 150
f 132 133 151
f 133 152 151
f 134 135 153
f 135 154 153
f 135 136 154
f 136 155 154
f 136 137 155
f 137 156 155
f 137 138 156
f 138 157 156
f 138 139 157
f 139 158 157
f 139 140 158
f 140 159 158
f 140 141 159
f 141 160 159
f 141 142 160
f 142 161 160
f 142 143 161
f 143 162 161
f 143 144 162
f 144 163 162
f 144 145 163
f 145 164 163
f 145 146 164
f 146 165 164
f 146 147 165
f 147 166 165
f 147 148 166
f 148 167 166
f 148 149 167
f 149 168 167
f 149 150 168
f 150 169 168
f 150 151 169
f 151 170 169
f 151 152 170
f 152 171 170
f 153 154 172
f 154 173 172
f 154 155 173
f 155 174 173
f 155 156 174
f 156 175 174
f 156 157 175
f 157 176 175
f 157 158 176
f 158 177 176
f 158 159 177
f 159 178 177
f 159 160 178
f 160 179 178
f 160 161 179
f 161 180 179
f 161 162 180
f 162 181 180
f 162 163 181
f 163 182 181
f 163 164 182
f 164 183 182
f 164 165 183
f 165 184 183
f 165 166 184
f 166 185 184
f 166 167 185
f 167 186 185
f 167 168 186
f 168 187 186
f 168 169 187
f 169 188 187
f 169 170 188
f 170 189 188
f 170 171 189
f 171 190 189
f 172 173 191
f 173 192 191
f 173 174 192
f 174 193 192
f 174 175 193
f 175 194 193
f 175 176 194
f 176 195 194
f 176 177 195
f 177 196 195
f 177 178 196
f 178 197 196
f 178 179 197
f 179 198 197
f 179 180 198
f 180 199 198
f 180 181 199
f 181 200 199
f 181 182 200
f 182 201 200
f 182 183 201
f 183 202 201
f 183 184 202
f 184 203 202
f 184 185 203
f 185 204 203
f 185 186 204
f 186 205 204
f 186 187 205
f 187 206 205
f 187 188 206
f 188 207 206
f 188 189 207
f 189 208 207
f 189 190 208
f 190 209 208
f 191 192 210
f 192 211 210
f 192 193 211
f 193 212 211
f 193 194 212
f 194 213 212
f 194 195 213
f 195 214 213
f 195 196 214
f 196 215 214
f 196 197 215
f 197 216 215
f 197 198 216
f 198 217 216
f 198 199 217
f 199 218 217
f 199 200 218
f 200 219 218
f 200 201 219
f 201 220 219
f 201 202 220
f 202 221 220
f 202 203 221
f 203 222 221
f 203 204 222
f 204 223 222
f 204 205 223
f 205 224 223
f 205 206 224
f 206 225 224
f 206 207 225
f 207 226 225
f 207 208 226
f 208 227 226
f 208 209 227
f 209 228 227
f 210 211 229
f 211 230 229
f 211 212 230
f 212 231 230
f 212 213 231
f 213 232 231
f 213 214 232
f 214 233 232
f 214 215 233
f 215 234 233
f 215 216 234
f 216 235 234
f 216 217 235
f 217 236 235
f 217 218 236
f 218 237 236
f 218 219 237
f 219 238 237
f 219 220 238
f 220 239 238
f 220 221 239
f 221 240 239
f 221 222 240
f 222 241 240
f 222 223 241
f 223 242 241
f 223 224 242
f 224 243 242
f 224 225 243
f 225 244 243
f 225 226 244
f 226 245 244
f 226 227 245
f 227 246 245
f 227 228 246
f 228 247 246
f 229 230 248
f 230 249 248
f 230 231 249
f 231 250 249
f 231 232 250
f 232 251 250
f 232 233 251
f 233 252 251
f 233 234 252
f 234 253 252
f 234 235 253
f 235 254 253
f 235 236 254
f 236 255 254
f 236 237 255
f 237 256 255
f 237 238 256
f 238 257 256
f 238 239 257
f 239 258 257
f 239 240 258
f 240 259 258
f 240 241 259
f 241 260 259
f 241 242 260
f 242 261 260
f 242 243 261
f 243 262 261
f 243 244 262
f 244 263 262
f 244 245 263
f 245 264 263
f 245 246 264
f 246 265 264
f 246 247 265
f 247 266 265
f 248 249 267
f 249 268 267
f 249 250 268
f 250 269 268
f 250 251 269
f 251 270 269
f 251 252 270
f 252 271 270
f 252 253 271
f 253 272 271
f 253 254 272
f 254 273 272
f 254 255 273
f 255 274 273
f 255 256 274
f 256 275 274
f 256 257 275
f 257 276 275
f 257 258 276
f 258 277 276
f 258 259 277
f 259 278 277
f 259 260 278
f 260 279 278
f 260 261 279
f 261 280 279
f 261 262 280
f 262 281 280
f 262 263 281
f 263 282 281
f 263 264 282
f 264 283 282
f 264 265 283
f 265 284 283
f 265 266 284
f 266 285 284
f 267 268 286
f 268 287 286
f 268 269 287
f 269 288 287
f 269 270 288
f 270 289 288
f 270 271 289
f 271 290 289
f 271 272 290
f 272 291 290
f 272 273 291
f 273 292 291
f 273 274 292
f 274 293 292
f 274 275 293
f 275 294 293
f 275 276 294
f 276 295 294
f 276 277 295
f 277 296 295
f 277 278 296
f 278 297 296
f 278 279 297
f 279 298 297
f 279 280 298
f 280 299 298
f 280 281 299
f 281 300 299
f 281 282 300
f 282 301 300
f 282 283 301
f 283 302 301
f 283 284 302
f 284 303 302
f 284 285 303
f 285 304 303
f 286 287 305
f 287 306 305
f 287 288 306
f 288 307 306
f 288 289 307
f 289 308 307
f 289 290 308
f 290 309 308
f 290 291 309
f 291 310 309
f 291 292 310
f 292 311 310
f 292 293 311
f 293 312 311
f 293 294 312
f 294 313 312
f 294 295 313
f 295 314 313
f 295 296 314
f 296 315 314
f 296 297 315
f 297 316 315
f 297 298 316
f 298 317 316
f 298 299 317
f 299 318 317
f 299 300 318
f 300 319 318
f 300 301 319
f 301 320 319
f 301 302 320
f 302 321 320
f 302 303 321
f 303 322 321
f 303 304 322
f 304 323 322
f 305 306 324
f 306 325 324
f 306 307 325
f 307 326 325
f 307 308 326
f 308 327 326
f 308 309 327
f 309 328 327
f 309 310 328
f 310 329 328
f 310 311 329
f 311 330 329
f 311 312 330
f 312 331 330
f 312 313 331
f 313 332 331
f 313 314 332
f 314 333 332
f 314 315 333
f 315 334 333
f 315 316 334
f 316 335 334
f 316 317 335
f 317 336 335
f 317 318 336
f 318 337 336
f 318 319 337
f 319 338 337
f 319 320 338
f 320 339 338
f 320 321 339
f 321 340 339
f 321 322 340
f 322 341 340
f 322 323 341
f 323 342 341
f 324 325 343
f 325 344 343
f 325 326 344
f 326 345 344
f 326 327 345
f 327 346 345
f 327 328 346
f 328 347 346
f 328 329 347
f 329 348 347
f 329 330 348
f 330 349 348
f 330 331 349
f 331 350 349
f 331 332 350
f 332 351 350
f 332 333 351
f 333 352 351
f 333 334 352
f 334 353 352
f 334 335 353
f 335 354 353
f 335 336 354
f 336 355 354
f 336 337 355
f 337 356 355
f 337 338 356
f 338 357 356
f 338 339 357
f 339 358 357
f 339 340 358
f 340 359 358
f 340 341 359
f 341 360 359
f 341 342 360
f 342 361 360
f 362 363 374
f 363 375 374
f 363 364 375
f 364 376 375
f 364 365 376
f 365 377 376
f 365 366 377
f 366 378 377
f 366 367 378
f 367 379 378
f 367 368 379
f 368 380 379
f 368 369 380
f 369 381 380
f 369 370 381
f 370 382 381
f 370 371 382
f 371 383 382
f 371 372 383
f 372 384 383
f 372 373 384
f 373 385 384
f 373 362 385
f 362 374 385
f 386 387 396
f 387 397 396
f 387 388 397
f 388 398 397
f 388 389 398
f 389 399 398
f 389 390 399
f 390 400 399
f 390 391 400
f 391 401 400
f 391 392 401
f 392 402 401
f 392 393 402
f 393 403 402
f 393 394 403
f 394 404 403
f 394 395 404
f 395 405 404
f 395 386 405
f 386 396 405
f 406 407 416
f 407 417 416
f 407 408 417
f 408 418 417
f 408 409 418
f 409 419 418
f 409 410 419
f 410 420 419
f 410 411 420
f 411 421 420
f 411 412 421
f 412 422 421
f 412 413 422
f 413 423 422
f 413 414 423
f 414 424 423
f 414 415 424
f 415 425 424
f 415 406 425
f 406 416 425
f 426 427 436
f 427 437 436
f 427 428 437
f 428 438 437
f 428 429 438
f 429 439 438
f 429 430 439
f 430 440 439
f 430 431 440
f 431 441 440
f 431 432 441
f 432 442 441
f 432 433 442
f 433 443 442
f 433 434 443
f 434 444 443
f 434 435 444
f 435 445 444
f 435 426 445
f 426 436 445
f 446 447 456
f 447 457 456
f 447 448 457
f 448 458 457
f 448 449 458
f 449 459 458
f 449 450 459
f 450 460 459
f 450 451 460
f 451 461 460
f 451 452 461
f 452 462 461
f 452 453 462
f 453 463 462
f 453 454 463
f 454 464 463
f 454 455 464
f 455 465 464
f 455 446 465
f 446 456 465
