# 3D Character Model - Generated for Unity
# Boy in white thobe

mtllib character.mtl
usemtl character_material

v 0.000000 1.150000 0.000000
v 0.000000 1.150000 0.000000
v 0.000000 1.150000 0.000000
v 0.000000 1.150000 0.000000
v 0.000000 1.150000 0.000000
v 0.000000 1.150000 0.000000
v 0.000000 1.150000 0.000000
v 0.000000 1.150000 0.000000
v 0.000000 1.150000 0.000000
v 0.000000 1.150000 0.000000
v 0.000000 1.150000 0.000000
v 0.000000 1.150000 0.000000
v 0.000000 1.150000 0.000000
v 0.000000 1.150000 0.000000
v 0.000000 1.150000 0.000000
v 0.000000 1.150000 0.000000
v 0.000000 1.150000 0.000000
v 0.000000 1.150000 0.000000
v 0.000000 1.150000 0.000000
v 0.000000 1.150000 0.000000
v 0.000000 1.150000 0.000000
v 0.000000 1.150000 0.000000
v 0.000000 1.150000 0.000000
v 0.000000 1.150000 0.000000
v 0.000000 1.150000 0.000000
v 0.045684 1.147006 0.000000
v 0.044127 1.147006 0.011824
v 0.039564 1.147006 0.022842
v 0.032304 1.147006 0.032304
v 0.022842 1.147006 0.039564
v 0.011824 1.147006 0.044127
v 0.000000 1.147006 0.045684
v -0.011824 1.147006 0.044127
v -0.022842 1.147006 0.039564
v -0.032303 1.147006 0.032304
v -0.039564 1.147006 0.022842
v -0.044127 1.147006 0.011824
v -0.045684 1.147006 0.000000
v -0.044128 1.147006 -0.011824
v -0.039564 1.147006 -0.022842
v -0.032304 1.147006 -0.032303
v -0.022842 1.147006 -0.039564
v -0.011824 1.147006 -0.044127
v -0.000000 1.147006 -0.045684
v 0.011824 1.147006 -0.044128
v 0.022842 1.147006 -0.039564
v 0.032303 1.147006 -0.032304
v 0.039564 1.147006 -0.022842
v 0.044127 1.147006 -0.011824
v 0.045684 1.147006 -0.000000
v 0.090587 1.138074 0.000000
v 0.087500 1.138074 0.023446
v 0.078450 1.138074 0.045293
v 0.064054 1.138074 0.064054
v 0.045293 1.138074 0.078450
v 0.023446 1.138074 0.087500
v 0.000000 1.138074 0.090587
v -0.023445 1.138074 0.087500
v -0.045293 1.138074 0.078450
v -0.064054 1.138074 0.064055
v -0.078450 1.138074 0.045293
v -0.087500 1.138074 0.023446
v -0.090587 1.138074 0.000000
v -0.087500 1.138074 -0.023445
v -0.078450 1.138074 -0.045293
v -0.064055 1.138074 -0.064054
v -0.045294 1.138074 -0.078450
v -0.023446 1.138074 -0.087500
v -0.000000 1.138074 -0.090587
v 0.023445 1.138074 -0.087500
v 0.045293 1.138074 -0.078450
v 0.064054 1.138074 -0.064055
v 0.078450 1.138074 -0.045294
v 0.087500 1.138074 -0.023446
v 0.090587 1.138074 -0.000000
v 0.133939 1.123358 0.000000
v 0.129375 1.123358 0.034666
v 0.115995 1.123358 0.066969
v 0.094709 1.123358 0.094709
v 0.066970 1.123358 0.115995
v 0.034666 1.123358 0.129375
v 0.000000 1.123358 0.133939
v -0.034666 1.123358 0.129375
v -0.066969 1.123358 0.115995
v -0.094709 1.123358 0.094709
v -0.115995 1.123358 0.066970
v -0.129375 1.123358 0.034666
v -0.133939 1.123358 0.000000
v -0.129375 1.123358 -0.034666
v -0.115995 1.123358 -0.066969
v -0.094710 1.123358 -0.094709
v -0.066970 1.123358 -0.115994
v -0.034666 1.123358 -0.129375
v -0.000001 1.123358 -0.133939
v 0.034665 1.123358 -0.129375
v 0.066969 1.123358 -0.115995
v 0.094709 1.123358 -0.094710
v 0.115994 1.123358 -0.066970
v 0.129375 1.123358 -0.034667
v 0.133939 1.123358 -0.000001
v 0.175000 1.103109 0.000000
v 0.169037 1.103109 0.045293
v 0.151554 1.103109 0.087500
v 0.123744 1.103109 0.123744
v 0.087500 1.103109 0.151554
v 0.045293 1.103109 0.169037
v 0.000000 1.103109 0.175000
v -0.045293 1.103109 0.169037
v -0.087500 1.103109 0.151554
v -0.123743 1.103109 0.123744
v -0.151554 1.103109 0.087500
v -0.169037 1.103109 0.045294
v -0.175000 1.103109 0.000000
v -0.169037 1.103109 -0.045293
v -0.151555 1.103109 -0.087499
v -0.123744 1.103109 -0.123743
v -0.087500 1.103109 -0.151554
v -0.045294 1.103109 -0.169037
v -0.000001 1.103109 -0.175000
v 0.045293 1.103109 -0.169037
v 0.087499 1.103109 -0.151555
v 0.123743 1.103109 -0.123744
v 0.151554 1.103109 -0.087501
v 0.169037 1.103109 -0.045294
v 0.175000 1.103109 -0.000001
v 0.213066 1.077674 0.000000
v 0.205806 1.077674 0.055146
v 0.184521 1.077674 0.106533
v 0.150661 1.077674 0.150661
v 0.106533 1.077674 0.184521
v 0.055146 1.077674 0.205806
v 0.000000 1.077674 0.213066
v -0.055145 1.077674 0.205806
v -0.106533 1.077674 0.184521
v -0.150660 1.077674 0.150661
v -0.184521 1.077674 0.106534
v -0.205806 1.077674 0.055146
v -0.213066 1.077674 0.000001
v -0.205806 1.077674 -0.055145
v -0.184521 1.077674 -0.106533
v -0.150661 1.077674 -0.150660
v -0.106534 1.077674 -0.184520
v -0.055146 1.077674 -0.205806
v -0.000001 1.077674 -0.213066
v 0.055145 1.077674 -0.205807
v 0.106532 1.077674 -0.184521
v 0.150660 1.077674 -0.150661
v 0.184520 1.077674 -0.106534
v 0.205806 1.077674 -0.055147
v 0.213066 1.077674 -0.000001
v 0.247487 1.047488 0.000000
v 0.239054 1.047488 0.064054
v 0.214330 1.047488 0.123744
v 0.175000 1.047488 0.175000
v 0.123744 1.047488 0.214330
v 0.064055 1.047488 0.239054
v 0.000000 1.047488 0.247487
v -0.064054 1.047488 0.239054
v -0.123743 1.047488 0.214330
v -0.175000 1.047488 0.175000
v -0.214330 1.047488 0.123744
v -0.239054 1.047488 0.064055
v -0.247487 1.047488 0.000001
v -0.239054 1.047488 -0.064054
v -0.214331 1.047488 -0.123743
v -0.175000 1.047488 -0.174999
v -0.123744 1.047488 -0.214330
v -0.064055 1.047488 -0.239054
v -0.000001 1.047488 -0.247487
v 0.064053 1.047488 -0.239055
v 0.123743 1.047488 -0.214331
v 0.174999 1.047488 -0.175001
v 0.214330 1.047488 -0.123745
v 0.239054 1.047488 -0.064056
v 0.247487 1.047488 -0.000001
v 0.277674 1.013067 0.000000
v 0.268212 1.013067 0.071867
v 0.240472 1.013067 0.138837
v 0.196345 1.013067 0.196345
v 0.138837 1.013067 0.240472
v 0.071867 1.013067 0.268212
v 0.000000 1.013067 0.277674
v -0.071867 1.013067 0.268212
v -0.138836 1.013067 0.240473
v -0.196344 1.013067 0.196345
v -0.240472 1.013067 0.138837
v -0.268212 1.013067 0.071868
v -0.277674 1.013067 0.000001
v -0.268212 1.013067 -0.071866
v -0.240473 1.013067 -0.138836
v -0.196345 1.013067 -0.196344
v -0.138838 1.013067 -0.240472
v -0.071868 1.013067 -0.268212
v -0.000001 1.013067 -0.277674
v 0.071866 1.013067 -0.268212
v 0.138836 1.013067 -0.240473
v 0.196344 1.013067 -0.196346
v 0.240472 1.013067 -0.138838
v 0.268212 1.013067 -0.071869
v 0.277674 1.013067 -0.000001
v 0.303109 0.975000 0.000000
v 0.292781 0.975000 0.078450
v 0.262500 0.975000 0.151554
v 0.214330 0.975000 0.214330
v 0.151555 0.975000 0.262500
v 0.078451 0.975000 0.292780
v 0.000000 0.975000 0.303109
v -0.078450 0.975000 0.292781
v -0.151554 0.975000 0.262500
v -0.214330 0.975000 0.214331
v -0.262500 0.975000 0.151555
v -0.292780 0.975000 0.078451
v -0.303109 0.975000 0.000001
v -0.292781 0.975000 -0.078449
v -0.262500 0.975000 -0.151554
v -0.214331 0.975000 -0.214330
v -0.151555 0.975000 -0.262499
v -0.078451 0.975000 -0.292780
v -0.000001 0.975000 -0.303109
v 0.078449 0.975000 -0.292781
v 0.151553 0.975000 -0.262501
v 0.214329 0.975000 -0.214331
v 0.262499 0.975000 -0.151556
v 0.292780 0.975000 -0.078452
v 0.303109 0.975000 -0.000002
v 0.323358 0.933940 0.000000
v 0.312340 0.933940 0.083691
v 0.280036 0.933940 0.161679
v 0.228649 0.933940 0.228648
v 0.161679 0.933940 0.280036
v 0.083691 0.933940 0.312339
v 0.000000 0.933940 0.323358
v -0.083691 0.933940 0.312340
v -0.161678 0.933940 0.280036
v -0.228648 0.933940 0.228649
v -0.280036 0.933940 0.161679
v -0.312339 0.933940 0.083692
v -0.323358 0.933940 0.000001
v -0.312340 0.933940 -0.083690
v -0.280036 0.933940 -0.161678
v -0.228649 0.933940 -0.228648
v -0.161680 0.933940 -0.280035
v -0.083692 0.933940 -0.312339
v -0.000001 0.933940 -0.323358
v 0.083690 0.933940 -0.312340
v 0.161678 0.933940 -0.280037
v 0.228647 0.933940 -0.228649
v 0.280035 0.933940 -0.161680
v 0.312339 0.933940 -0.083693
v 0.323358 0.933940 -0.000002
v 0.338074 0.890587 0.000000
v 0.326554 0.890587 0.087500
v 0.292781 0.890587 0.169037
v 0.239055 0.890587 0.239054
v 0.169037 0.890587 0.292780
v 0.087500 0.890587 0.326554
v 0.000000 0.890587 0.338074
v -0.087499 0.890587 0.326554
v -0.169036 0.890587 0.292781
v -0.239054 0.890587 0.239055
v -0.292780 0.890587 0.169038
v -0.326554 0.890587 0.087501
v -0.338074 0.890587 0.000001
v -0.326555 0.890587 -0.087499
v -0.292781 0.890587 -0.169036
v -0.239055 0.890587 -0.239054
v -0.169038 0.890587 -0.292780
v -0.087501 0.890587 -0.326554
v -0.000001 0.890587 -0.338074
v 0.087499 0.890587 -0.326555
v 0.169036 0.890587 -0.292781
v 0.239053 0.890587 -0.239055
v 0.292780 0.890587 -0.169038
v 0.326554 0.890587 -0.087502
v 0.338074 0.890587 -0.000002
v 0.347006 0.845685 0.000000
v 0.335182 0.845685 0.089812
v 0.300516 0.845685 0.173503
v 0.245370 0.845685 0.245370
v 0.173503 0.845685 0.300516
v 0.089812 0.845685 0.335182
v 0.000000 0.845685 0.347006
v -0.089811 0.845685 0.335182
v -0.173502 0.845685 0.300516
v -0.245370 0.845685 0.245371
v -0.300515 0.845685 0.173503
v -0.335181 0.845685 0.089812
v -0.347006 0.845685 0.000001
v -0.335182 0.845685 -0.089811
v -0.300516 0.845685 -0.173502
v -0.245371 0.845685 -0.245369
v -0.173504 0.845685 -0.300515
v -0.089813 0.845685 -0.335181
v -0.000001 0.845685 -0.347006
v 0.089810 0.845685 -0.335182
v 0.173501 0.845685 -0.300516
v 0.245369 0.845685 -0.245371
v 0.300515 0.845685 -0.173504
v 0.335181 0.845685 -0.089813
v 0.347006 0.845685 -0.000002
v 0.350000 0.800000 0.000000
v 0.338074 0.800000 0.090587
v 0.303109 0.800000 0.175000
v 0.247488 0.800000 0.247487
v 0.175000 0.800000 0.303109
v 0.090587 0.800000 0.338074
v 0.000000 0.800000 0.350000
v -0.090586 0.800000 0.338074
v -0.174999 0.800000 0.303109
v -0.247487 0.800000 0.247488
v -0.303109 0.800000 0.175001
v -0.338074 0.800000 0.090587
v -0.350000 0.800000 0.000001
v -0.338074 0.800000 -0.090586
v -0.303109 0.800000 -0.174999
v -0.247488 0.800000 -0.247487
v -0.175001 0.800000 -0.303108
v -0.090588 0.800000 -0.338074
v -0.000001 0.800000 -0.350000
v 0.090585 0.800000 -0.338074
v 0.174999 0.800000 -0.303110
v 0.247486 0.800000 -0.247489
v 0.303108 0.800000 -0.175001
v 0.338074 0.800000 -0.090588
v 0.350000 0.800000 -0.000002
v 0.347006 0.754316 0.000000
v 0.335182 0.754316 0.089812
v 0.300516 0.754316 0.173503
v 0.245370 0.754316 0.245370
v 0.173503 0.754316 0.300516
v 0.089812 0.754316 0.335182
v 0.000000 0.754316 0.347006
v -0.089811 0.754316 0.335182
v -0.173502 0.754316 0.300516
v -0.245370 0.754316 0.245371
v -0.300515 0.754316 0.173504
v -0.335182 0.754316 0.089813
v -0.347006 0.754316 0.000001
v -0.335182 0.754316 -0.089811
v -0.300516 0.754316 -0.173502
v -0.245371 0.754316 -0.245369
v -0.173504 0.754316 -0.300515
v -0.089813 0.754316 -0.335181
v -0.000001 0.754316 -0.347006
v 0.089810 0.754316 -0.335182
v 0.173502 0.754316 -0.300517
v 0.245369 0.754316 -0.245371
v 0.300515 0.754316 -0.173504
v 0.335181 0.754316 -0.089813
v 0.347006 0.754316 -0.000002
v 0.338074 0.709414 0.000000
v 0.326555 0.709414 0.087500
v 0.292781 0.709414 0.169037
v 0.239055 0.709414 0.239054
v 0.169037 0.709414 0.292781
v 0.087500 0.709414 0.326554
v 0.000000 0.709414 0.338074
v -0.087500 0.709414 0.326555
v -0.169037 0.709414 0.292781
v -0.239054 0.709414 0.239055
v -0.292780 0.709414 0.169038
v -0.326554 0.709414 0.087501
v -0.338074 0.709414 0.000001
v -0.326555 0.709414 -0.087499
v -0.292781 0.709414 -0.169036
v -0.239055 0.709414 -0.239054
v -0.169038 0.709414 -0.292780
v -0.087501 0.709414 -0.326554
v -0.000001 0.709414 -0.338074
v 0.087499 0.709414 -0.326555
v 0.169036 0.709414 -0.292782
v 0.239053 0.709414 -0.239056
v 0.292780 0.709414 -0.169039
v 0.326554 0.709414 -0.087502
v 0.338074 0.709414 -0.000002
v 0.323358 0.666061 0.000000
v 0.312340 0.666061 0.083691
v 0.280036 0.666061 0.161679
v 0.228649 0.666061 0.228649
v 0.161679 0.666061 0.280036
v 0.083692 0.666061 0.312340
v 0.000000 0.666061 0.323358
v -0.083691 0.666061 0.312340
v -0.161679 0.666061 0.280037
v -0.228648 0.666061 0.228649
v -0.280036 0.666061 0.161680
v -0.312340 0.666061 0.083692
v -0.323358 0.666061 0.000001
v -0.312340 0.666061 -0.083690
v -0.280037 0.666061 -0.161678
v -0.228649 0.666061 -0.228648
v -0.161680 0.666061 -0.280036
v -0.083692 0.666061 -0.312340
v -0.000001 0.666061 -0.323358
v 0.083690 0.666061 -0.312340
v 0.161678 0.666061 -0.280037
v 0.228648 0.666061 -0.228650
v 0.280036 0.666061 -0.161680
v 0.312339 0.666061 -0.083693
v 0.323358 0.666061 -0.000002
v 0.303109 0.625001 0.000000
v 0.292781 0.625001 0.078450
v 0.262500 0.625001 0.151554
v 0.214331 0.625001 0.214330
v 0.151555 0.625001 0.262500
v 0.078451 0.625001 0.292781
v 0.000000 0.625001 0.303109
v -0.078450 0.625001 0.292781
v -0.151554 0.625001 0.262501
v -0.214330 0.625001 0.214331
v -0.262500 0.625001 0.151555
v -0.292781 0.625001 0.078451
v -0.303109 0.625001 0.000001
v -0.292781 0.625001 -0.078450
v -0.262501 0.625001 -0.151554
v -0.214331 0.625001 -0.214330
v -0.151556 0.625001 -0.262500
v -0.078452 0.625001 -0.292781
v -0.000001 0.625001 -0.303109
v 0.078449 0.625001 -0.292781
v 0.151553 0.625001 -0.262501
v 0.214330 0.625001 -0.214332
v 0.262500 0.625001 -0.151556
v 0.292781 0.625001 -0.078452
v 0.303109 0.625001 -0.000002
v 0.277674 0.586934 0.000000
v 0.268213 0.586934 0.071867
v 0.240473 0.586934 0.138837
v 0.196345 0.586934 0.196345
v 0.138837 0.586934 0.240473
v 0.071868 0.586934 0.268212
v 0.000000 0.586934 0.277674
v -0.071867 0.586934 0.268213
v -0.138837 0.586934 0.240473
v -0.196345 0.586934 0.196346
v -0.240472 0.586934 0.138838
v -0.268212 0.586934 0.071868
v -0.277674 0.586934 0.000001
v -0.268213 0.586934 -0.071867
v -0.240473 0.586934 -0.138836
v -0.196346 0.586934 -0.196345
v -0.138838 0.586934 -0.240472
v -0.071868 0.586934 -0.268212
v -0.000001 0.586934 -0.277674
v 0.071866 0.586934 -0.268213
v 0.138836 0.586934 -0.240473
v 0.196344 0.586934 -0.196346
v 0.240472 0.586934 -0.138838
v 0.268212 0.586934 -0.071869
v 0.277674 0.586934 -0.000001
v 0.247488 0.552513 0.000000
v 0.239055 0.552513 0.064055
v 0.214331 0.552513 0.123744
v 0.175000 0.552513 0.175000
v 0.123744 0.552513 0.214331
v 0.064055 0.552513 0.239055
v 0.000000 0.552513 0.247488
v -0.064054 0.552513 0.239055
v -0.123744 0.552513 0.214331
v -0.175000 0.552513 0.175001
v -0.214331 0.552513 0.123744
v -0.239055 0.552513 0.064055
v -0.247488 0.552513 0.000001
v -0.239055 0.552513 -0.064054
v -0.214331 0.552513 -0.123743
v -0.175001 0.552513 -0.175000
v -0.123745 0.552513 -0.214330
v -0.064055 0.552513 -0.239055
v -0.000001 0.552513 -0.247488
v 0.064054 0.552513 -0.239055
v 0.123743 0.552513 -0.214331
v 0.175000 0.552513 -0.175001
v 0.214330 0.552513 -0.123745
v 0.239055 0.552513 -0.064056
v 0.247488 0.552513 -0.000001
v 0.213067 0.522327 0.000000
v 0.205807 0.522327 0.055146
v 0.184522 0.522327 0.106533
v 0.150661 0.522327 0.150661
v 0.106534 0.522327 0.184521
v 0.055146 0.522327 0.205807
v 0.000000 0.522327 0.213067
v -0.055146 0.522327 0.205807
v -0.106533 0.522327 0.184522
v -0.150661 0.522327 0.150661
v -0.184521 0.522327 0.106534
v -0.205807 0.522327 0.055146
v -0.213067 0.522327 0.000001
v -0.205807 0.522327 -0.055145
v -0.184522 0.522327 -0.106533
v -0.150662 0.522327 -0.150661
v -0.106534 0.522327 -0.184521
v -0.055147 0.522327 -0.205807
v -0.000001 0.522327 -0.213067
v 0.055145 0.522327 -0.205807
v 0.106533 0.522327 -0.184522
v 0.150660 0.522327 -0.150662
v 0.184521 0.522327 -0.106534
v 0.205807 0.522327 -0.055147
v 0.213067 0.522327 -0.000001
v 0.175001 0.496891 0.000000
v 0.169038 0.496891 0.045293
v 0.151555 0.496891 0.087500
v 0.123744 0.496891 0.123744
v 0.087500 0.496891 0.151555
v 0.045294 0.496891 0.169038
v 0.000000 0.496891 0.175001
v -0.045293 0.496891 0.169038
v -0.087500 0.496891 0.151555
v -0.123744 0.496891 0.123744
v -0.151555 0.496891 0.087501
v -0.169038 0.496891 0.045294
v -0.175001 0.496891 0.000000
v -0.169038 0.496891 -0.045293
v -0.151555 0.496891 -0.087500
v -0.123745 0.496891 -0.123744
v -0.087501 0.496891 -0.151555
v -0.045294 0.496891 -0.169037
v -0.000001 0.496891 -0.175001
v 0.045293 0.496891 -0.169038
v 0.087500 0.496891 -0.151555
v 0.123744 0.496891 -0.123745
v 0.151555 0.496891 -0.087501
v 0.169037 0.496891 -0.045294
v 0.175001 0.496891 -0.000001
v 0.133940 0.476642 0.000000
v 0.129376 0.476642 0.034666
v 0.115995 0.476642 0.066970
v 0.094710 0.476642 0.094710
v 0.066970 0.476642 0.115995
v 0.034666 0.476642 0.129376
v 0.000000 0.476642 0.133940
v -0.034666 0.476642 0.129376
v -0.066970 0.476642 0.115996
v -0.094710 0.476642 0.094710
v -0.115995 0.476642 0.066970
v -0.129376 0.476642 0.034667
v -0.133940 0.476642 0.000000
v -0.129376 0.476642 -0.034666
v -0.115996 0.476642 -0.066970
v -0.094710 0.476642 -0.094710
v -0.066970 0.476642 -0.115995
v -0.034667 0.476642 -0.129376
v -0.000001 0.476642 -0.133940
v 0.034666 0.476642 -0.129376
v 0.066969 0.476642 -0.115996
v 0.094709 0.476642 -0.094710
v 0.115995 0.476642 -0.066971
v 0.129376 0.476642 -0.034667
v 0.133940 0.476642 -0.000001
v 0.090587 0.461926 0.000000
v 0.087501 0.461926 0.023446
v 0.078451 0.461926 0.045294
v 0.064055 0.461926 0.064055
v 0.045294 0.461926 0.078451
v 0.023446 0.461926 0.087501
v 0.000000 0.461926 0.090587
v -0.023446 0.461926 0.087501
v -0.045294 0.461926 0.078451
v -0.064055 0.461926 0.064055
v -0.078451 0.461926 0.045294
v -0.087501 0.461926 0.023446
v -0.090587 0.461926 0.000000
v -0.087501 0.461926 -0.023446
v -0.078451 0.461926 -0.045294
v -0.064055 0.461926 -0.064055
v -0.045294 0.461926 -0.078451
v -0.023446 0.461926 -0.087501
v -0.000000 0.461926 -0.090587
v 0.023445 0.461926 -0.087501
v 0.045293 0.461926 -0.078451
v 0.064055 0.461926 -0.064055
v 0.078451 0.461926 -0.045294
v 0.087501 0.461926 -0.023446
v 0.090587 0.461926 -0.000000
v 0.045685 0.452994 0.000000
v 0.044128 0.452994 0.011824
v 0.039564 0.452994 0.022843
v 0.032304 0.452994 0.032304
v 0.022843 0.452994 0.039564
v 0.011824 0.452994 0.044128
v 0.000000 0.452994 0.045685
v -0.011824 0.452994 0.044128
v -0.022842 0.452994 0.039564
v -0.032304 0.452994 0.032304
v -0.039564 0.452994 0.022843
v -0.044128 0.452994 0.011824
v -0.045685 0.452994 0.000000
v -0.044128 0.452994 -0.011824
v -0.039564 0.452994 -0.022842
v -0.032304 0.452994 -0.032304
v -0.022843 0.452994 -0.039564
v -0.011824 0.452994 -0.044128
v -0.000000 0.452994 -0.045685
v 0.011824 0.452994 -0.044128
v 0.022842 0.452994 -0.039565
v 0.032304 0.452994 -0.032304
v 0.039564 0.452994 -0.022843
v 0.044128 0.452994 -0.011824
v 0.045685 0.452994 -0.000000
v 0.000001 0.450000 0.000000
v 0.000001 0.450000 0.000000
v 0.000001 0.450000 0.000000
v 0.000001 0.450000 0.000001
v 0.000000 0.450000 0.000001
v 0.000000 0.450000 0.000001
v 0.000000 0.450000 0.000001
v -0.000000 0.450000 0.000001
v -0.000000 0.450000 0.000001
v -0.000001 0.450000 0.000001
v -0.000001 0.450000 0.000000
v -0.000001 0.450000 0.000000
v -0.000001 0.450000 0.000000
v -0.000001 0.450000 -0.000000
v -0.000001 0.450000 -0.000000
v -0.000001 0.450000 -0.000001
v -0.000000 0.450000 -0.000001
v -0.000000 0.450000 -0.000001
v -0.000000 0.450000 -0.000001
v 0.000000 0.450000 -0.000001
v 0.000000 0.450000 -0.000001
v 0.000001 0.450000 -0.000001
v 0.000001 0.450000 -0.000000
v 0.000001 0.450000 -0.000000
v 0.000001 0.450000 -0.000000
v 0.280000 0.100000 0.000000
v 0.258686 0.100000 0.107151
v 0.197990 0.100000 0.197990
v 0.107152 0.100000 0.258686
v 0.000000 0.100000 0.280000
v -0.107151 0.100000 0.258686
v -0.197990 0.100000 0.197990
v -0.258686 0.100000 0.107152
v -0.280000 0.100000 0.000001
v -0.258687 0.100000 -0.107151
v -0.197991 0.100000 -0.197989
v -0.107152 0.100000 -0.258686
v -0.000001 0.100000 -0.280000
v 0.107150 0.100000 -0.258687
v 0.197989 0.100000 -0.197991
v 0.258686 0.100000 -0.107153
v 0.280000 0.650000 0.000000
v 0.258686 0.650000 0.107151
v 0.197990 0.650000 0.197990
v 0.107152 0.650000 0.258686
v 0.000000 0.650000 0.280000
v -0.107151 0.650000 0.258686
v -0.197990 0.650000 0.197990
v -0.258686 0.650000 0.107152
v -0.280000 0.650000 0.000001
v -0.258687 0.650000 -0.107151
v -0.197991 0.650000 -0.197989
v -0.107152 0.650000 -0.258686
v -0.000001 0.650000 -0.280000
v 0.107150 0.650000 -0.258687
v 0.197989 0.650000 -0.197991
v 0.258686 0.650000 -0.107153
v -0.370000 0.450000 0.000000
v -0.377922 0.450000 0.034711
v -0.400121 0.450000 0.062546
v -0.432198 0.450000 0.077994
v -0.467802 0.450000 0.077994
v -0.499879 0.450000 0.062547
v -0.522077 0.450000 0.034711
v -0.530000 0.450000 0.000000
v -0.522078 0.450000 -0.034710
v -0.499879 0.450000 -0.062546
v -0.467802 0.450000 -0.077994
v -0.432199 0.450000 -0.077994
v -0.400121 0.450000 -0.062547
v -0.377923 0.450000 -0.034711
v -0.370000 0.800000 0.000000
v -0.377922 0.800000 0.034711
v -0.400121 0.800000 0.062546
v -0.432198 0.800000 0.077994
v -0.467802 0.800000 0.077994
v -0.499879 0.800000 0.062547
v -0.522077 0.800000 0.034711
v -0.530000 0.800000 0.000000
v -0.522078 0.800000 -0.034710
v -0.499879 0.800000 -0.062546
v -0.467802 0.800000 -0.077994
v -0.432199 0.800000 -0.077994
v -0.400121 0.800000 -0.062547
v -0.377923 0.800000 -0.034711
v 0.530000 0.450000 0.000000
v 0.522078 0.450000 0.034711
v 0.499879 0.450000 0.062546
v 0.467802 0.450000 0.077994
v 0.432198 0.450000 0.077994
v 0.400121 0.450000 0.062547
v 0.377923 0.450000 0.034711
v 0.370000 0.450000 0.000000
v 0.377922 0.450000 -0.034710
v 0.400121 0.450000 -0.062546
v 0.432198 0.450000 -0.077994
v 0.467801 0.450000 -0.077994
v 0.499879 0.450000 -0.062547
v 0.522077 0.450000 -0.034711
v 0.530000 0.800000 0.000000
v 0.522078 0.800000 0.034711
v 0.499879 0.800000 0.062546
v 0.467802 0.800000 0.077994
v 0.432198 0.800000 0.077994
v 0.400121 0.800000 0.062547
v 0.377923 0.800000 0.034711
v 0.370000 0.800000 0.000000
v 0.377922 0.800000 -0.034710
v 0.400121 0.800000 -0.062546
v 0.432198 0.800000 -0.077994
v 0.467801 0.800000 -0.077994
v 0.499879 0.800000 -0.062547
v 0.522077 0.800000 -0.034711
v -0.070000 -0.300000 0.000000
v -0.077922 -0.300000 0.034711
v -0.100121 -0.300000 0.062546
v -0.132198 -0.300000 0.077994
v -0.167802 -0.300000 0.077994
v -0.199879 -0.300000 0.062547
v -0.222077 -0.300000 0.034711
v -0.230000 -0.300000 0.000000
v -0.222078 -0.300000 -0.034710
v -0.199879 -0.300000 -0.062546
v -0.167802 -0.300000 -0.077994
v -0.132199 -0.300000 -0.077994
v -0.100121 -0.300000 -0.062547
v -0.077923 -0.300000 -0.034711
v -0.070000 0.150000 0.000000
v -0.077922 0.150000 0.034711
v -0.100121 0.150000 0.062546
v -0.132198 0.150000 0.077994
v -0.167802 0.150000 0.077994
v -0.199879 0.150000 0.062547
v -0.222077 0.150000 0.034711
v -0.230000 0.150000 0.000000
v -0.222078 0.150000 -0.034710
v -0.199879 0.150000 -0.062546
v -0.167802 0.150000 -0.077994
v -0.132199 0.150000 -0.077994
v -0.100121 0.150000 -0.062547
v -0.077923 0.150000 -0.034711
v 0.230000 -0.300000 0.000000
v 0.222078 -0.300000 0.034711
v 0.199879 -0.300000 0.062546
v 0.167802 -0.300000 0.077994
v 0.132198 -0.300000 0.077994
v 0.100121 -0.300000 0.062547
v 0.077923 -0.300000 0.034711
v 0.070000 -0.300000 0.000000
v 0.077922 -0.300000 -0.034710
v 0.100121 -0.300000 -0.062546
v 0.132198 -0.300000 -0.077994
v 0.167801 -0.300000 -0.077994
v 0.199879 -0.300000 -0.062547
v 0.222077 -0.300000 -0.034711
v 0.230000 0.150000 0.000000
v 0.222078 0.150000 0.034711
v 0.199879 0.150000 0.062546
v 0.167802 0.150000 0.077994
v 0.132198 0.150000 0.077994
v 0.100121 0.150000 0.062547
v 0.077923 0.150000 0.034711
v 0.070000 0.150000 0.000000
v 0.077922 0.150000 -0.034710
v 0.100121 0.150000 -0.062546
v 0.132198 0.150000 -0.077994
v 0.167801 0.150000 -0.077994
v 0.199879 0.150000 -0.062547
v 0.222077 0.150000 -0.034711

# Faces
f 1 2 26
f 2 27 26
f 2 3 27
f 3 28 27
f 3 4 28
f 4 29 28
f 4 5 29
f 5 30 29
f 5 6 30
f 6 31 30
f 6 7 31
f 7 32 31
f 7 8 32
f 8 33 32
f 8 9 33
f 9 34 33
f 9 10 34
f 10 35 34
f 10 11 35
f 11 36 35
f 11 12 36
f 12 37 36
f 12 13 37
f 13 38 37
f 13 14 38
f 14 39 38
f 14 15 39
f 15 40 39
f 15 16 40
f 16 41 40
f 16 17 41
f 17 42 41
f 17 18 42
f 18 43 42
f 18 19 43
f 19 44 43
f 19 20 44
f 20 45 44
f 20 21 45
f 21 46 45
f 21 22 46
f 22 47 46
f 22 23 47
f 23 48 47
f 23 24 48
f 24 49 48
f 24 25 49
f 25 50 49
f 26 27 51
f 27 52 51
f 27 28 52
f 28 53 52
f 28 29 53
f 29 54 53
f 29 30 54
f 30 55 54
f 30 31 55
f 31 56 55
f 31 32 56
f 32 57 56
f 32 33 57
f 33 58 57
f 33 34 58
f 34 59 58
f 34 35 59
f 35 60 59
f 35 36 60
f 36 61 60
f 36 37 61
f 37 62 61
f 37 38 62
f 38 63 62
f 38 39 63
f 39 64 63
f 39 40 64
f 40 65 64
f 40 41 65
f 41 66 65
f 41 42 66
f 42 67 66
f 42 43 67
f 43 68 67
f 43 44 68
f 44 69 68
f 44 45 69
f 45 70 69
f 45 46 70
f 46 71 70
f 46 47 71
f 47 72 71
f 47 48 72
f 48 73 72
f 48 49 73
f 49 74 73
f 49 50 74
f 50 75 74
f 51 52 76
f 52 77 76
f 52 53 77
f 53 78 77
f 53 54 78
f 54 79 78
f 54 55 79
f 55 80 79
f 55 56 80
f 56 81 80
f 56 57 81
f 57 82 81
f 57 58 82
f 58 83 82
f 58 59 83
f 59 84 83
f 59 60 84
f 60 85 84
f 60 61 85
f 61 86 85
f 61 62 86
f 62 87 86
f 62 63 87
f 63 88 87
f 63 64 88
f 64 89 88
f 64 65 89
f 65 90 89
f 65 66 90
f 66 91 90
f 66 67 91
f 67 92 91
f 67 68 92
f 68 93 92
f 68 69 93
f 69 94 93
f 69 70 94
f 70 95 94
f 70 71 95
f 71 96 95
f 71 72 96
f 72 97 96
f 72 73 97
f 73 98 97
f 73 74 98
f 74 99 98
f 74 75 99
f 75 100 99
f 76 77 101
f 77 102 101
f 77 78 102
f 78 103 102
f 78 79 103
f 79 104 103
f 79 80 104
f 80 105 104
f 80 81 105
f 81 106 105
f 81 82 106
f 82 107 106
f 82 83 107
f 83 108 107
f 83 84 108
f 84 109 108
f 84 85 109
f 85 110 109
f 85 86 110
f 86 111 110
f 86 87 111
f 87 112 111
f 87 88 112
f 88 113 112
f 88 89 113
f 89 114 113
f 89 90 114
f 90 115 114
f 90 91 115
f 91 116 115
f 91 92 116
f 92 117 116
f 92 93 117
f 93 118 117
f 93 94 118
f 94 119 118
f 94 95 119
f 95 120 119
f 95 96 120
f 96 121 120
f 96 97 121
f 97 122 121
f 97 98 122
f 98 123 122
f 98 99 123
f 99 124 123
f 99 100 124
f 100 125 124
f 101 102 126
f 102 127 126
f 102 103 127
f 103 128 127
f 103 104 128
f 104 129 128
f 104 105 129
f 105 130 129
f 105 106 130
f 106 131 130
f 106 107 131
f 107 132 131
f 107 108 132
f 108 133 132
f 108 109 133
f 109 134 133
f 109 110 134
f 110 135 134
f 110 111 135
f 111 136 135
f 111 112 136
f 112 137 136
f 112 113 137
f 113 138 137
f 113 114 138
f 114 139 138
f 114 115 139
f 115 140 139
f 115 116 140
f 116 141 140
f 116 117 141
f 117 142 141
f 117 118 142
f 118 143 142
f 118 119 143
f 119 144 143
f 119 120 144
f 120 145 144
f 120 121 145
f 121 146 145
f 121 122 146
f 122 147 146
f 122 123 147
f 123 148 147
f 123 124 148
f 124 149 148
f 124 125 149
f 125 150 149
f 126 127 151
f 127 152 151
f 127 128 152
f 128 153 152
f 128 129 153
f 129 154 153
f 129 130 154
f 130 155 154
f 130 131 155
f 131 156 155
f 131 132 156
f 132 157 156
f 132 133 157
f 133 158 157
f 133 134 158
f 134 159 158
f 134 135 159
f 135 160 159
f 135 136 160
f 136 161 160
f 136 137 161
f 137 162 161
f 137 138 162
f 138 163 162
f 138 139 163
f 139 164 163
f 139 140 164
f 140 165 164
f 140 141 165
f 141 166 165
f 141 142 166
f 142 167 166
f 142 143 167
f 143 168 167
f 143 144 168
f 144 169 168
f 144 145 169
f 145 170 169
f 145 146 170
f 146 171 170
f 146 147 171
f 147 172 171
f 147 148 172
f 148 173 172
f 148 149 173
f 149 174 173
f 149 150 174
f 150 175 174
f 151 152 176
f 152 177 176
f 152 153 177
f 153 178 177
f 153 154 178
f 154 179 178
f 154 155 179
f 155 180 179
f 155 156 180
f 156 181 180
f 156 157 181
f 157 182 181
f 157 158 182
f 158 183 182
f 158 159 183
f 159 184 183
f 159 160 184
f 160 185 184
f 160 161 185
f 161 186 185
f 161 162 186
f 162 187 186
f 162 163 187
f 163 188 187
f 163 164 188
f 164 189 188
f 164 165 189
f 165 190 189
f 165 166 190
f 166 191 190
f 166 167 191
f 167 192 191
f 167 168 192
f 168 193 192
f 168 169 193
f 169 194 193
f 169 170 194
f 170 195 194
f 170 171 195
f 171 196 195
f 171 172 196
f 172 197 196
f 172 173 197
f 173 198 197
f 173 174 198
f 174 199 198
f 174 175 199
f 175 200 199
f 176 177 201
f 177 202 201
f 177 178 202
f 178 203 202
f 178 179 203
f 179 204 203
f 179 180 204
f 180 205 204
f 180 181 205
f 181 206 205
f 181 182 206
f 182 207 206
f 182 183 207
f 183 208 207
f 183 184 208
f 184 209 208
f 184 185 209
f 185 210 209
f 185 186 210
f 186 211 210
f 186 187 211
f 187 212 211
f 187 188 212
f 188 213 212
f 188 189 213
f 189 214 213
f 189 190 214
f 190 215 214
f 190 191 215
f 191 216 215
f 191 192 216
f 192 217 216
f 192 193 217
f 193 218 217
f 193 194 218
f 194 219 218
f 194 195 219
f 195 220 219
f 195 196 220
f 196 221 220
f 196 197 221
f 197 222 221
f 197 198 222
f 198 223 222
f 198 199 223
f 199 224 223
f 199 200 224
f 200 225 224
f 201 202 226
f 202 227 226
f 202 203 227
f 203 228 227
f 203 204 228
f 204 229 228
f 204 205 229
f 205 230 229
f 205 206 230
f 206 231 230
f 206 207 231
f 207 232 231
f 207 208 232
f 208 233 232
f 208 209 233
f 209 234 233
f 209 210 234
f 210 235 234
f 210 211 235
f 211 236 235
f 211 212 236
f 212 237 236
f 212 213 237
f 213 238 237
f 213 214 238
f 214 239 238
f 214 215 239
f 215 240 239
f 215 216 240
f 216 241 240
f 216 217 241
f 217 242 241
f 217 218 242
f 218 243 242
f 218 219 243
f 219 244 243
f 219 220 244
f 220 245 244
f 220 221 245
f 221 246 245
f 221 222 246
f 222 247 246
f 222 223 247
f 223 248 247
f 223 224 248
f 224 249 248
f 224 225 249
f 225 250 249
f 226 227 251
f 227 252 251
f 227 228 252
f 228 253 252
f 228 229 253
f 229 254 253
f 229 230 254
f 230 255 254
f 230 231 255
f 231 256 255
f 231 232 256
f 232 257 256
f 232 233 257
f 233 258 257
f 233 234 258
f 234 259 258
f 234 235 259
f 235 260 259
f 235 236 260
f 236 261 260
f 236 237 261
f 237 262 261
f 237 238 262
f 238 263 262
f 238 239 263
f 239 264 263
f 239 240 264
f 240 265 264
f 240 241 265
f 241 266 265
f 241 242 266
f 242 267 266
f 242 243 267
f 243 268 267
f 243 244 268
f 244 269 268
f 244 245 269
f 245 270 269
f 245 246 270
f 246 271 270
f 246 247 271
f 247 272 271
f 247 248 272
f 248 273 272
f 248 249 273
f 249 274 273
f 249 250 274
f 250 275 274
f 251 252 276
f 252 277 276
f 252 253 277
f 253 278 277
f 253 254 278
f 254 279 278
f 254 255 279
f 255 280 279
f 255 256 280
f 256 281 280
f 256 257 281
f 257 282 281
f 257 258 282
f 258 283 282
f 258 259 283
f 259 284 283
f 259 260 284
f 260 285 284
f 260 261 285
f 261 286 285
f 261 262 286
f 262 287 286
f 262 263 287
f 263 288 287
f 263 264 288
f 264 289 288
f 264 265 289
f 265 290 289
f 265 266 290
f 266 291 290
f 266 267 291
f 267 292 291
f 267 268 292
f 268 293 292
f 268 269 293
f 269 294 293
f 269 270 294
f 270 295 294
f 270 271 295
f 271 296 295
f 271 272 296
f 272 297 296
f 272 273 297
f 273 298 297
f 273 274 298
f 274 299 298
f 274 275 299
f 275 300 299
f 276 277 301
f 277 302 301
f 277 278 302
f 278 303 302
f 278 279 303
f 279 304 303
f 279 280 304
f 280 305 304
f 280 281 305
f 281 306 305
f 281 282 306
f 282 307 306
f 282 283 307
f 283 308 307
f 283 284 308
f 284 309 308
f 284 285 309
f 285 310 309
f 285 286 310
f 286 311 310
f 286 287 311
f 287 312 311
f 287 288 312
f 288 313 312
f 288 289 313
f 289 314 313
f 289 290 314
f 290 315 314
f 290 291 315
f 291 316 315
f 291 292 316
f 292 317 316
f 292 293 317
f 293 318 317
f 293 294 318
f 294 319 318
f 294 295 319
f 295 320 319
f 295 296 320
f 296 321 320
f 296 297 321
f 297 322 321
f 297 298 322
f 298 323 322
f 298 299 323
f 299 324 323
f 299 300 324
f 300 325 324
f 301 302 326
f 302 327 326
f 302 303 327
f 303 328 327
f 303 304 328
f 304 329 328
f 304 305 329
f 305 330 329
f 305 306 330
f 306 331 330
f 306 307 331
f 307 332 331
f 307 308 332
f 308 333 332
f 308 309 333
f 309 334 333
f 309 310 334
f 310 335 334
f 310 311 335
f 311 336 335
f 311 312 336
f 312 337 336
f 312 313 337
f 313 338 337
f 313 314 338
f 314 339 338
f 314 315 339
f 315 340 339
f 315 316 340
f 316 341 340
f 316 317 341
f 317 342 341
f 317 318 342
f 318 343 342
f 318 319 343
f 319 344 343
f 319 320 344
f 320 345 344
f 320 321 345
f 321 346 345
f 321 322 346
f 322 347 346
f 322 323 347
f 323 348 347
f 323 324 348
f 324 349 348
f 324 325 349
f 325 350 349
f 326 327 351
f 327 352 351
f 327 328 352
f 328 353 352
f 328 329 353
f 329 354 353
f 329 330 354
f 330 355 354
f 330 331 355
f 331 356 355
f 331 332 356
f 332 357 356
f 332 333 357
f 333 358 357
f 333 334 358
f 334 359 358
f 334 335 359
f 335 360 359
f 335 336 360
f 336 361 360
f 336 337 361
f 337 362 361
f 337 338 362
f 338 363 362
f 338 339 363
f 339 364 363
f 339 340 364
f 340 365 364
f 340 341 365
f 341 366 365
f 341 342 366
f 342 367 366
f 342 343 367
f 343 368 367
f 343 344 368
f 344 369 368
f 344 345 369
f 345 370 369
f 345 346 370
f 346 371 370
f 346 347 371
f 347 372 371
f 347 348 372
f 348 373 372
f 348 349 373
f 349 374 373
f 349 350 374
f 350 375 374
f 351 352 376
f 352 377 376
f 352 353 377
f 353 378 377
f 353 354 378
f 354 379 378
f 354 355 379
f 355 380 379
f 355 356 380
f 356 381 380
f 356 357 381
f 357 382 381
f 357 358 382
f 358 383 382
f 358 359 383
f 359 384 383
f 359 360 384
f 360 385 384
f 360 361 385
f 361 386 385
f 361 362 386
f 362 387 386
f 362 363 387
f 363 388 387
f 363 364 388
f 364 389 388
f 364 365 389
f 365 390 389
f 365 366 390
f 366 391 390
f 366 367 391
f 367 392 391
f 367 368 392
f 368 393 392
f 368 369 393
f 369 394 393
f 369 370 394
f 370 395 394
f 370 371 395
f 371 396 395
f 371 372 396
f 372 397 396
f 372 373 397
f 373 398 397
f 373 374 398
f 374 399 398
f 374 375 399
f 375 400 399
f 376 377 401
f 377 402 401
f 377 378 402
f 378 403 402
f 378 379 403
f 379 404 403
f 379 380 404
f 380 405 404
f 380 381 405
f 381 406 405
f 381 382 406
f 382 407 406
f 382 383 407
f 383 408 407
f 383 384 408
f 384 409 408
f 384 385 409
f 385 410 409
f 385 386 410
f 386 411 410
f 386 387 411
f 387 412 411
f 387 388 412
f 388 413 412
f 388 389 413
f 389 414 413
f 389 390 414
f 390 415 414
f 390 391 415
f 391 416 415
f 391 392 416
f 392 417 416
f 392 393 417
f 393 418 417
f 393 394 418
f 394 419 418
f 394 395 419
f 395 420 419
f 395 396 420
f 396 421 420
f 396 397 421
f 397 422 421
f 397 398 422
f 398 423 422
f 398 399 423
f 399 424 423
f 399 400 424
f 400 425 424
f 401 402 426
f 402 427 426
f 402 403 427
f 403 428 427
f 403 404 428
f 404 429 428
f 404 405 429
f 405 430 429
f 405 406 430
f 406 431 430
f 406 407 431
f 407 432 431
f 407 408 432
f 408 433 432
f 408 409 433
f 409 434 433
f 409 410 434
f 410 435 434
f 410 411 435
f 411 436 435
f 411 412 436
f 412 437 436
f 412 413 437
f 413 438 437
f 413 414 438
f 414 439 438
f 414 415 439
f 415 440 439
f 415 416 440
f 416 441 440
f 416 417 441
f 417 442 441
f 417 418 442
f 418 443 442
f 418 419 443
f 419 444 443
f 419 420 444
f 420 445 444
f 420 421 445
f 421 446 445
f 421 422 446
f 422 447 446
f 422 423 447
f 423 448 447
f 423 424 448
f 424 449 448
f 424 425 449
f 425 450 449
f 426 427 451
f 427 452 451
f 427 428 452
f 428 453 452
f 428 429 453
f 429 454 453
f 429 430 454
f 430 455 454
f 430 431 455
f 431 456 455
f 431 432 456
f 432 457 456
f 432 433 457
f 433 458 457
f 433 434 458
f 434 459 458
f 434 435 459
f 435 460 459
f 435 436 460
f 436 461 460
f 436 437 461
f 437 462 461
f 437 438 462
f 438 463 462
f 438 439 463
f 439 464 463
f 439 440 464
f 440 465 464
f 440 441 465
f 441 466 465
f 441 442 466
f 442 467 466
f 442 443 467
f 443 468 467
f 443 444 468
f 444 469 468
f 444 445 469
f 445 470 469
f 445 446 470
f 446 471 470
f 446 447 471
f 447 472 471
f 447 448 472
f 448 473 472
f 448 449 473
f 449 474 473
f 449 450 474
f 450 475 474
f 451 452 476
f 452 477 476
f 452 453 477
f 453 478 477
f 453 454 478
f 454 479 478
f 454 455 479
f 455 480 479
f 455 456 480
f 456 481 480
f 456 457 481
f 457 482 481
f 457 458 482
f 458 483 482
f 458 459 483
f 459 484 483
f 459 460 484
f 460 485 484
f 460 461 485
f 461 486 485
f 461 462 486
f 462 487 486
f 462 463 487
f 463 488 487
f 463 464 488
f 464 489 488
f 464 465 489
f 465 490 489
f 465 466 490
f 466 491 490
f 466 467 491
f 467 492 491
f 467 468 492
f 468 493 492
f 468 469 493
f 469 494 493
f 469 470 494
f 470 495 494
f 470 471 495
f 471 496 495
f 471 472 496
f 472 497 496
f 472 473 497
f 473 498 497
f 473 474 498
f 474 499 498
f 474 475 499
f 475 500 499
f 476 477 501
f 477 502 501
f 477 478 502
f 478 503 502
f 478 479 503
f 479 504 503
f 479 480 504
f 480 505 504
f 480 481 505
f 481 506 505
f 481 482 506
f 482 507 506
f 482 483 507
f 483 508 507
f 483 484 508
f 484 509 508
f 484 485 509
f 485 510 509
f 485 486 510
f 486 511 510
f 486 487 511
f 487 512 511
f 487 488 512
f 488 513 512
f 488 489 513
f 489 514 513
f 489 490 514
f 490 515 514
f 490 491 515
f 491 516 515
f 491 492 516
f 492 517 516
f 492 493 517
f 493 518 517
f 493 494 518
f 494 519 518
f 494 495 519
f 495 520 519
f 495 496 520
f 496 521 520
f 496 497 521
f 497 522 521
f 497 498 522
f 498 523 522
f 498 499 523
f 499 524 523
f 499 500 524
f 500 525 524
f 501 502 526
f 502 527 526
f 502 503 527
f 503 528 527
f 503 504 528
f 504 529 528
f 504 505 529
f 505 530 529
f 505 506 530
f 506 531 530
f 506 507 531
f 507 532 531
f 507 508 532
f 508 533 532
f 508 509 533
f 509 534 533
f 509 510 534
f 510 535 534
f 510 511 535
f 511 536 535
f 511 512 536
f 512 537 536
f 512 513 537
f 513 538 537
f 513 514 538
f 514 539 538
f 514 515 539
f 515 540 539
f 515 516 540
f 516 541 540
f 516 517 541
f 517 542 541
f 517 518 542
f 518 543 542
f 518 519 543
f 519 544 543
f 519 520 544
f 520 545 544
f 520 521 545
f 521 546 545
f 521 522 546
f 522 547 546
f 522 523 547
f 523 548 547
f 523 524 548
f 524 549 548
f 524 525 549
f 525 550 549
f 526 527 551
f 527 552 551
f 527 528 552
f 528 553 552
f 528 529 553
f 529 554 553
f 529 530 554
f 530 555 554
f 530 531 555
f 531 556 555
f 531 532 556
f 532 557 556
f 532 533 557
f 533 558 557
f 533 534 558
f 534 559 558
f 534 535 559
f 535 560 559
f 535 536 560
f 536 561 560
f 536 537 561
f 537 562 561
f 537 538 562
f 538 563 562
f 538 539 563
f 539 564 563
f 539 540 564
f 540 565 564
f 540 541 565
f 541 566 565
f 541 542 566
f 542 567 566
f 542 543 567
f 543 568 567
f 543 544 568
f 544 569 568
f 544 545 569
f 545 570 569
f 545 546 570
f 546 571 570
f 546 547 571
f 547 572 571
f 547 548 572
f 548 573 572
f 548 549 573
f 549 574 573
f 549 550 574
f 550 575 574
f 551 552 576
f 552 577 576
f 552 553 577
f 553 578 577
f 553 554 578
f 554 579 578
f 554 555 579
f 555 580 579
f 555 556 580
f 556 581 580
f 556 557 581
f 557 582 581
f 557 558 582
f 558 583 582
f 558 559 583
f 559 584 583
f 559 560 584
f 560 585 584
f 560 561 585
f 561 586 585
f 561 562 586
f 562 587 586
f 562 563 587
f 563 588 587
f 563 564 588
f 564 589 588
f 564 565 589
f 565 590 589
f 565 566 590
f 566 591 590
f 566 567 591
f 567 592 591
f 567 568 592
f 568 593 592
f 568 569 593
f 569 594 593
f 569 570 594
f 570 595 594
f 570 571 595
f 571 596 595
f 571 572 596
f 572 597 596
f 572 573 597
f 573 598 597
f 573 574 598
f 574 599 598
f 574 575 599
f 575 600 599
f 576 577 601
f 577 602 601
f 577 578 602
f 578 603 602
f 578 579 603
f 579 604 603
f 579 580 604
f 580 605 604
f 580 581 605
f 581 606 605
f 581 582 606
f 582 607 606
f 582 583 607
f 583 608 607
f 583 584 608
f 584 609 608
f 584 585 609
f 585 610 609
f 585 586 610
f 586 611 610
f 586 587 611
f 587 612 611
f 587 588 612
f 588 613 612
f 588 589 613
f 589 614 613
f 589 590 614
f 590 615 614
f 590 591 615
f 591 616 615
f 591 592 616
f 592 617 616
f 592 593 617
f 593 618 617
f 593 594 618
f 594 619 618
f 594 595 619
f 595 620 619
f 595 596 620
f 596 621 620
f 596 597 621
f 597 622 621
f 597 598 622
f 598 623 622
f 598 599 623
f 599 624 623
f 599 600 624
f 600 625 624
f 626 627 642
f 627 643 642
f 627 628 643
f 628 644 643
f 628 629 644
f 629 645 644
f 629 630 645
f 630 646 645
f 630 631 646
f 631 647 646
f 631 632 647
f 632 648 647
f 632 633 648
f 633 649 648
f 633 634 649
f 634 650 649
f 634 635 650
f 635 651 650
f 635 636 651
f 636 652 651
f 636 637 652
f 637 653 652
f 637 638 653
f 638 654 653
f 638 639 654
f 639 655 654
f 639 640 655
f 640 656 655
f 640 641 656
f 641 657 656
f 641 626 657
f 626 642 657
f 658 659 672
f 659 673 672
f 659 660 673
f 660 674 673
f 660 661 674
f 661 675 674
f 661 662 675
f 662 676 675
f 662 663 676
f 663 677 676
f 663 664 677
f 664 678 677
f 664 665 678
f 665 679 678
f 665 666 679
f 666 680 679
f 666 667 680
f 667 681 680
f 667 668 681
f 668 682 681
f 668 669 682
f 669 683 682
f 669 670 683
f 670 684 683
f 670 671 684
f 671 685 684
f 671 658 685
f 658 672 685
f 686 687 700
f 687 701 700
f 687 688 701
f 688 702 701
f 688 689 702
f 689 703 702
f 689 690 703
f 690 704 703
f 690 691 704
f 691 705 704
f 691 692 705
f 692 706 705
f 692 693 706
f 693 707 706
f 693 694 707
f 694 708 707
f 694 695 708
f 695 709 708
f 695 696 709
f 696 710 709
f 696 697 710
f 697 711 710
f 697 698 711
f 698 712 711
f 698 699 712
f 699 713 712
f 699 686 713
f 686 700 713
f 714 715 728
f 715 729 728
f 715 716 729
f 716 730 729
f 716 717 730
f 717 731 730
f 717 718 731
f 718 732 731
f 718 719 732
f 719 733 732
f 719 720 733
f 720 734 733
f 720 721 734
f 721 735 734
f 721 722 735
f 722 736 735
f 722 723 736
f 723 737 736
f 723 724 737
f 724 738 737
f 724 725 738
f 725 739 738
f 725 726 739
f 726 740 739
f 726 727 740
f 727 741 740
f 727 714 741
f 714 728 741
f 742 743 756
f 743 757 756
f 743 744 757
f 744 758 757
f 744 745 758
f 745 759 758
f 745 746 759
f 746 760 759
f 746 747 760
f 747 761 760
f 747 748 761
f 748 762 761
f 748 749 762
f 749 763 762
f 749 750 763
f 750 764 763
f 750 751 764
f 751 765 764
f 751 752 765
f 752 766 765
f 752 753 766
f 753 767 766
f 753 754 767
f 754 768 767
f 754 755 768
f 755 769 768
f 755 742 769
f 742 756 769
